<?xml version="1.0" encoding="iso-8859-1"?>
<!-- Uploaded to: SVG Repo, www.svgrepo.com, Generator: SVG Repo Mixer Tools -->
<svg height="800px" width="800px" version="1.1" id="Layer_1" xmlns="http://www.w3.org/2000/svg" xmlns:xlink="http://www.w3.org/1999/xlink" 
	 viewBox="0 0 512 512" xml:space="preserve">
<path style="fill:#DCE5FA;" d="M465.051,8.862H46.95c-21.035,0-38.089,17.053-38.089,38.089v418.101
	c0,21.035,17.053,38.089,38.089,38.089h418.1c21.035,0,38.089-17.053,38.089-38.089V46.949
	C503.139,25.914,486.086,8.862,465.051,8.862z"/>
<path style="opacity:0.1;enable-background:new    ;" d="M67.933,465.051V46.949c0-21.036,17.053-38.089,38.089-38.089H46.951
	c-21.036,0-38.089,17.053-38.089,38.089v418.1c0,21.036,17.053,38.089,38.089,38.089h59.071
	C84.986,503.138,67.933,486.086,67.933,465.051z"/>
<path style="fill:#FF6465;" d="M394.17,210.114h-92.283v-92.284c0-11.65-9.445-21.095-21.097-21.095h-49.578
	c-11.651,0-21.097,9.445-21.097,21.095v92.283h-92.285c-11.65,0-21.095,9.445-21.095,21.097v49.578
	c0,11.651,9.445,21.096,21.095,21.096h92.283v92.283c0,11.65,9.445,21.095,21.097,21.095h49.578
	c11.651,0,21.097-9.445,21.097-21.095v-92.283h92.283c11.65,0,21.095-9.445,21.095-21.096V231.21
	C415.265,219.56,405.82,210.114,394.17,210.114z"/>
<path d="M280.79,424.125h-49.578c-16.519,0-29.957-13.439-29.957-29.956v-83.422h-83.423c-16.517,0-29.956-13.439-29.956-29.957
	v-49.578c0-16.519,13.439-29.957,29.956-29.957h83.422v-83.424c0-16.517,13.439-29.956,29.957-29.956h49.578
	c16.519,0,29.957,13.439,29.957,29.956v83.422h83.422c16.517,0,29.956,13.439,29.956,29.957v49.578
	c0,16.519-13.439,29.957-29.956,29.957h-83.422v83.422C310.747,410.687,297.308,424.125,280.79,424.125z M117.831,218.975
	c-6.746,0-12.235,5.489-12.235,12.236v49.578c0,6.747,5.489,12.236,12.235,12.236h92.283c4.893,0,8.861,3.966,8.861,8.861v92.283
	c0,6.747,5.489,12.235,12.236,12.235h49.578c6.747,0,12.236-5.489,12.236-12.235v-92.283c0-4.895,3.967-8.861,8.861-8.861h92.283
	c6.746,0,12.235-5.489,12.235-12.236v-49.578c0-6.747-5.489-12.236-12.235-12.236h-92.283c-4.893,0-8.861-3.966-8.861-8.861v-92.284
	c0-6.747-5.489-12.235-12.236-12.235H231.21c-6.747,0-12.236,5.489-12.236,12.235v92.283c0,4.895-3.967,8.861-8.861,8.861h-92.283
	V218.975z"/>
<path d="M360.591,512H46.95c-25.888,0-46.949-21.061-46.949-46.949V46.949C0.002,21.061,21.063,0,46.95,0h44.273
	c4.893,0,8.861,3.966,8.861,8.861s-3.967,8.861-8.861,8.861H46.95c-16.117,0-29.228,13.113-29.228,29.228v418.1
	c0,16.117,13.111,29.228,29.228,29.228h313.641c4.893,0,8.861,3.966,8.861,8.861C369.451,508.033,365.484,512,360.591,512z"/>
<path d="M465.05,512h-69.017c-4.893,0-8.861-3.966-8.861-8.861c0-4.895,3.967-8.861,8.861-8.861h69.017
	c16.117,0,29.228-13.113,29.228-29.228V46.949c0-16.117-13.111-29.228-29.228-29.228H126.666c-4.893,0-8.861-3.966-8.861-8.861
	S121.772,0,126.666,0H465.05c25.888,0,46.949,21.061,46.949,46.949v418.1C511.999,490.939,490.938,512,465.05,512z"/>
</svg>